<svg width="133" height="134" viewBox="0 0 133 134" fill="none" xmlns="http://www.w3.org/2000/svg">
<path d="M26.0494 16.2047H16.6968V19.1812H26.0494V16.2047Z" fill="#EBEBEB"/>
<path d="M90.4187 51.455H81.0662V54.4315H90.4187V51.455Z" fill="#EBEBEB"/>
<path d="M20.8331 12.4514C19.2797 12.478 15.2977 12.5445 13.7974 12.5631H11.4806L11.6029 12.4407V15.4173L11.4699 15.2843C13.0234 15.2843 16.9841 15.3055 18.4843 15.3268L20.8225 15.3561L20.7586 15.4173L20.8225 12.4407L20.8331 12.4514ZM20.8331 12.4514L20.8943 15.4279V15.4917H20.8305C19.6627 15.5077 17.3193 15.5343 16.1542 15.5423L11.4779 15.5609H11.3449V15.4279V12.4514V12.3317H11.4646H13.824C15.3136 12.3476 19.277 12.4141 20.8172 12.4407L20.8331 12.4514Z" fill="#EBEBEB"/>
<path d="M47.2975 76.576C45.744 76.6026 41.762 76.6691 40.2618 76.6851H37.9449L38.0673 76.5654V79.5419L37.9343 79.4089C39.4877 79.4089 43.4484 79.4275 44.9487 79.4488L47.2868 79.4781L47.223 79.5419L47.2868 76.5654L47.2975 76.576ZM47.2975 76.576L47.3613 79.5525V79.6137H47.2975C46.1297 79.6137 43.7889 79.6563 42.6212 79.6643L37.9449 79.6829H37.8119V79.5499V76.5733V76.451H37.9316L40.291 76.4643C41.7806 76.4802 45.7467 76.5467 47.2842 76.5733L47.2975 76.576Z" fill="#EBEBEB"/>
<path d="M42.0812 72.8174C40.5278 72.844 36.5457 72.9105 35.0455 72.9265H32.7286L32.851 72.8068V75.7833L32.718 75.6503C34.2714 75.6503 38.2322 75.6689 39.7324 75.6902L42.0706 75.7195L42.0067 75.7833L42.0706 72.8068L42.0812 72.8174ZM42.0812 72.8174L42.145 75.7939V75.8551H42.0812C40.9135 75.8684 38.57 75.8977 37.4049 75.9057L32.7286 75.9243H32.5956V75.7913V72.8147V72.6924H32.718H35.0774C36.567 72.7083 40.5304 72.7748 42.0706 72.8014L42.0812 72.8174Z" fill="#EBEBEB"/>
<path d="M36.8863 76.5707H27.5337V79.5472H36.8863V76.5707Z" fill="#EBEBEB"/>
<path d="M121.519 12.4514H112.167V15.4279H121.519V12.4514Z" fill="#EBEBEB"/>
<path d="M116.303 104.368H106.951V107.344H116.303V104.368Z" fill="#EBEBEB"/>
<path d="M121.519 100.614C119.966 100.641 115.984 100.708 114.484 100.726H112.167L112.289 100.604V103.58L112.156 103.447C113.71 103.447 117.67 103.469 119.171 103.49L121.509 103.519L121.445 103.58L121.509 100.604L121.519 100.614ZM121.519 100.614L121.583 103.591V103.655H121.519C120.352 103.671 118.011 103.697 116.843 103.708L112.167 103.724H112.034V103.588L112.047 100.612V100.492H112.167H114.526C116.016 100.508 119.982 100.577 121.519 100.601V100.614Z" fill="#EBEBEB"/>
<path d="M26.0494 104.368C24.496 104.394 20.5139 104.461 19.0137 104.479H16.6968L16.8192 104.357V107.334L16.6862 107.201L21.3625 107.219C22.5276 107.219 24.8737 107.256 26.0388 107.272L25.9749 107.334L26.0388 104.357L26.0494 104.368ZM26.0494 104.368L26.1132 107.344V107.408H26.0494C24.8817 107.424 22.5382 107.451 21.3731 107.461L16.6968 107.477H16.5638V107.342V104.365V104.24H16.6835H19.043C20.5326 104.256 24.496 104.325 26.0361 104.349L26.0494 104.368Z" fill="#EBEBEB"/>
<path d="M53.7506 32.4599L53.2665 35.9179C53.2265 36.2638 53.1166 36.5981 52.9436 36.9003C52.7706 37.2025 52.538 37.4665 52.2599 37.6762C51.9819 37.8858 51.6641 38.0368 51.326 38.1201C50.9878 38.2033 50.6362 38.217 50.2926 38.1603C49.6025 38.0613 48.9796 37.6933 48.5599 37.1366C48.1403 36.5799 47.958 35.8797 48.0529 35.1891L48.827 29.6563C48.827 29.6031 48.8882 29.611 48.8961 29.5578C48.8509 29.4967 48.8509 29.4967 48.8562 29.4435C48.9716 28.761 49.3436 28.1485 49.8961 27.7316C50.4485 27.3146 51.1395 27.1248 51.8274 27.2011C52.6147 27.3211 53.4179 27.2836 54.1906 27.0908C54.9632 26.8981 55.6899 26.5538 56.3285 26.0781C56.9671 25.6024 57.505 25.0046 57.9108 24.3195C58.3167 23.6344 58.5825 22.8755 58.6929 22.0868C58.8033 21.2982 58.756 20.4955 58.5538 19.7252C58.3517 18.955 57.9986 18.2325 57.5151 17.5998C57.0316 16.967 56.4274 16.4365 55.7373 16.039C55.0473 15.6416 54.2852 15.385 53.4953 15.2843C52.4624 15.1363 51.4087 15.263 50.4402 15.6515C49.4718 16.04 48.6227 16.6766 47.9784 17.4974C47.7626 17.7744 47.494 18.0059 47.1882 18.1786C46.8824 18.3513 46.5455 18.4617 46.1968 18.5035C45.8481 18.5453 45.4946 18.5176 45.1566 18.4221C44.8187 18.3266 44.503 18.1651 44.2278 17.9469C43.958 17.732 43.7333 17.4658 43.5668 17.1636C43.4002 16.8615 43.2951 16.5294 43.2576 16.1864C43.22 15.8434 43.2506 15.4964 43.3478 15.1654C43.4449 14.8343 43.6066 14.5258 43.8235 14.2575C44.9768 12.7852 46.4777 11.6225 48.1915 10.8738C49.9053 10.1252 51.7782 9.814 53.6421 9.9683C55.5059 10.1226 57.3022 10.7375 58.8695 11.7578C60.4369 12.7781 61.7262 14.1718 62.6216 15.8137C63.5171 17.4556 63.9906 19.2942 63.9996 21.1644C64.0086 23.0345 63.5529 24.8776 62.6734 26.5281C61.7938 28.1785 60.518 29.5846 58.9606 30.62C57.4031 31.6554 55.6129 32.2876 53.7506 32.4599ZM52.1201 44.108L51.9844 45.0656C51.9457 45.4122 51.8369 45.7472 51.6646 46.0504C51.4923 46.3535 51.2601 46.6184 50.9821 46.8289C50.7041 47.0395 50.3862 47.1912 50.0477 47.275C49.7092 47.3587 49.3572 47.3727 49.0132 47.316C48.3224 47.2184 47.6987 46.8507 47.2787 46.2936C46.8588 45.7366 46.6771 45.0357 46.7734 44.3448L46.9064 43.3872C47.0106 42.6995 47.3799 42.08 47.9353 41.6614C48.4907 41.2427 49.1879 41.0582 49.8777 41.1475C50.2207 41.1915 50.5514 41.3034 50.8506 41.4768C51.1499 41.6501 51.4115 41.8814 51.6203 42.1571C51.8291 42.4327 51.9808 42.7472 52.0666 43.0822C52.1524 43.4172 52.1706 43.7659 52.1201 44.108Z" fill="#EBEBEB"/>
<path d="M27.9805 49.0157L28.7546 51.838C28.8389 52.1169 28.8656 52.41 28.8331 52.6996C28.8006 52.9891 28.7095 53.2691 28.5655 53.5223C28.4214 53.7756 28.2274 53.997 27.9951 54.1729C27.7629 54.3489 27.4973 54.4757 27.2145 54.5459C26.6515 54.7002 26.0504 54.625 25.5428 54.3368C25.0352 54.0486 24.6626 53.5709 24.5066 53.0084L23.2644 48.4864C23.2644 48.4465 23.2989 48.4332 23.2856 48.388C23.2298 48.3587 23.2298 48.3587 23.2165 48.3135C23.0784 47.7508 23.1611 47.1566 23.4475 46.653C23.734 46.1494 24.2024 45.7746 24.7566 45.6056C25.4193 45.4533 26.0444 45.1683 26.594 44.768C27.1437 44.3677 27.6066 43.8602 27.9549 43.2762C28.3032 42.6921 28.5297 42.0436 28.6207 41.3698C28.7117 40.6959 28.6653 40.0105 28.4844 39.3551C28.3034 38.6996 27.9916 38.0875 27.5678 37.5557C27.144 37.0239 26.617 36.5835 26.0184 36.2608C25.4198 35.9382 24.7621 35.74 24.0849 35.6784C23.4077 35.6167 22.725 35.6927 22.078 35.9019C21.2352 36.1302 20.4675 36.5767 19.8524 37.1965C19.2374 37.8162 18.7966 38.5872 18.5748 39.4318C18.5021 39.7173 18.3734 39.9856 18.1961 40.2209C18.0187 40.4563 17.7963 40.654 17.5418 40.8025C17.2873 40.951 17.0058 41.0475 16.7137 41.0861C16.4216 41.1248 16.1247 41.105 15.8403 41.0278C15.5617 40.9518 15.3008 40.8215 15.0727 40.6443C14.8446 40.4672 14.6537 40.2467 14.5111 39.9955C14.3684 39.7444 14.2769 39.4675 14.2416 39.1809C14.2063 38.8942 14.228 38.6034 14.3055 38.3252C14.7029 36.8108 15.4704 35.4188 16.539 34.2744C17.6075 33.13 18.9436 32.269 20.4273 31.7687C21.9109 31.2685 23.4956 31.1447 25.039 31.4084C26.5823 31.6722 28.0359 32.3153 29.2693 33.2798C30.5026 34.2444 31.4769 35.5003 32.1047 36.9346C32.7326 38.3689 32.9942 39.9368 32.8662 41.4972C32.7382 43.0577 32.2244 44.5619 31.3712 45.8747C30.518 47.1875 29.3519 48.2677 27.9779 49.0184L27.9805 49.0157ZM30.5927 58.5119L30.8081 59.2913C30.8923 59.5709 30.9187 59.8648 30.8857 60.1549C30.8528 60.4451 30.7611 60.7255 30.6162 60.9791C30.4714 61.2327 30.2765 61.4541 30.0433 61.6299C29.8101 61.8058 29.5436 61.9323 29.26 62.0019C28.6967 62.1546 28.0959 62.0784 27.5887 61.7899C27.0814 61.5013 26.7088 61.0239 26.5521 60.4617L26.334 59.6797C26.1884 59.1167 26.2678 58.5191 26.5553 58.0136C26.8428 57.5081 27.3158 57.1344 27.8741 56.9718C28.1536 56.8905 28.4465 56.8661 28.7356 56.8999C29.0246 56.9337 29.304 57.0251 29.5571 57.1686C29.8103 57.3122 30.0321 57.505 30.2095 57.7358C30.3869 57.9665 30.5163 58.2304 30.59 58.5119H30.5927Z" fill="#EBEBEB"/>
<path d="M41.7407 61.7039L41.6263 63.8692C41.6188 64.085 41.5675 64.2971 41.4756 64.4925C41.3838 64.6879 41.2532 64.8627 41.0918 65.0062C40.9304 65.1497 40.7415 65.2589 40.5367 65.3273C40.3318 65.3957 40.1152 65.4218 39.9 65.404C39.4681 65.3806 39.063 65.1869 38.7738 64.8652C38.4846 64.5436 38.3347 64.1203 38.3572 63.6883L38.5381 60.2303C38.5381 60.1984 38.5753 60.201 38.578 60.1665C38.5806 60.1319 38.5434 60.1319 38.5461 60.0973C38.5806 59.6693 38.7776 59.2708 39.0966 58.9834C39.4156 58.696 39.8325 58.5416 40.2618 58.5518C40.7508 58.5779 41.2402 58.5073 41.702 58.3442C42.1637 58.1811 42.5889 57.9286 42.9531 57.6012C43.3173 57.2738 43.6134 56.8779 43.8246 56.436C44.0358 55.9942 44.1579 55.5151 44.1839 55.026C44.21 54.537 44.1394 54.0476 43.9763 53.5858C43.8132 53.124 43.5607 52.6989 43.2333 52.3347C42.9059 51.9705 42.51 51.6743 42.0681 51.4632C41.6263 51.252 41.1471 51.1299 40.6581 51.1038C40.0116 51.0676 39.3669 51.2021 38.7889 51.494C38.2108 51.7858 37.7198 52.2246 37.365 52.7663C37.247 52.95 37.0936 53.1083 36.9138 53.2321C36.734 53.3558 36.5313 53.4425 36.3176 53.4871C36.1039 53.5316 35.8835 53.5332 35.6692 53.4917C35.4549 53.4501 35.251 53.3663 35.0694 53.2451C34.8913 53.1267 34.7383 52.9741 34.6193 52.7963C34.5003 52.6185 34.4177 52.4188 34.3761 52.209C34.3346 51.9991 34.335 51.783 34.3773 51.5733C34.4196 51.3635 34.5029 51.1642 34.6226 50.9868C35.2567 50.0143 36.1225 49.2146 37.1422 48.6596C38.1619 48.1046 39.3036 47.8117 40.4645 47.8072C41.6255 47.8028 42.7693 48.0868 43.7933 48.6339C44.8173 49.181 45.6893 49.974 46.3309 50.9415C46.9725 51.9091 47.3636 53.0209 47.4691 54.1771C47.5745 55.3333 47.3911 56.4975 46.9351 57.5652C46.4792 58.6329 45.7651 59.5706 44.857 60.2939C43.9489 61.0172 42.8753 61.5036 41.7327 61.7093L41.7407 61.7039ZM41.355 68.995L41.3231 69.5935C41.3169 69.8095 41.2669 70.022 41.1761 70.2181C41.0854 70.4142 40.9557 70.5899 40.795 70.7344C40.6343 70.8789 40.446 70.9893 40.2414 71.0588C40.0368 71.1283 39.8202 71.1556 39.6047 71.139C39.1723 71.1156 38.7669 70.9215 38.4776 70.5992C38.1882 70.277 38.0387 69.853 38.0619 69.4206L38.0939 68.8221C38.1226 68.3919 38.3179 67.9899 38.6382 67.7014C38.9586 67.4128 39.3787 67.2605 39.8096 67.2766C40.0247 67.2854 40.236 67.3371 40.4309 67.4288C40.6257 67.5204 40.8003 67.6501 40.9443 67.8102C41.0883 67.9703 41.1989 68.1576 41.2694 68.3611C41.3399 68.5646 41.369 68.7801 41.355 68.995Z" fill="#DBDBDB"/>
<path d="M105.849 22.3599H84.5641V43.6452H105.849V22.3599Z" fill="white"/>
<path d="M83.4548 21.248V44.7464H106.956V21.248H83.4548ZM105.849 43.6399H84.5694V22.3599H105.849V43.6399Z" fill="#DBDBDB"/>
<path d="M104.315 39.5195V32.162H87.7242V39.5195H104.315Z" fill="#EBEBEB"/>
<path d="M99.4548 37.2532V28.7518H90.9534V37.2532H99.4548Z" fill="#C7C7C7"/>
<path d="M107.863 21.2507H106.956V44.7518H107.863V21.2507Z" fill="#C7C7C7"/>
<path d="M116.848 53.6388H95.5632V74.9241H116.848V53.6388Z" fill="white"/>
<path d="M104.78 57.0436H99.2233V73.0994H104.78V57.0436Z" fill="#C7C7C7"/>
<path d="M94.4566 52.5296V76.044H117.955V52.5296H94.4566ZM116.848 74.9241H95.5685V53.6441H116.848V74.9241Z" fill="#DBDBDB"/>
<path d="M110.457 60.0308H101.958V68.5295H110.457V60.0308Z" fill="#EBEBEB"/>
<path d="M118.865 52.5296H117.958V76.0307H118.865V52.5296Z" fill="#C7C7C7"/>
<path d="M12.619 116.939L26.0893 116.875L39.5595 116.851L66.5 116.806L93.4405 116.851L106.911 116.875L120.381 116.939L106.911 117.003L93.4405 117.027L66.5 117.072L39.5595 117.027L26.0893 117.003L12.619 116.939Z" fill="#263238"/>
<path d="M76.5494 65.1965C89.9718 79.2227 106.685 108.555 103.399 114.407C99.7393 120.916 81.0555 101.258 81.1379 100.128C81.2044 99.2738 74.7938 81.5077 69.9207 68.5987C65.0476 55.6897 73.2298 61.7279 76.5494 65.1965Z" fill="#D3766A"/>
<path d="M81.0103 100.133C80.457 98.2364 71.7242 74.8178 69.2371 67.415C66.75 60.0122 69.1919 57.7698 76.5096 64.6273C83.8272 71.4848 99.75 94.2571 103.277 106.27C106.677 117.841 100.747 117.75 93.0042 112.324C86.6628 107.879 81.0103 100.133 81.0103 100.133Z" fill="#FFC727"/>
<path d="M68.6493 61.5949C68.5987 61.5763 68.5482 61.5577 68.495 61.5337C68.5159 61.4681 68.5435 61.4048 68.5775 61.3449C68.6785 61.3848 68.7823 61.422 68.886 61.4566C69.7239 61.7226 70.748 61.8104 71.4848 61.2331C71.568 61.168 71.6446 61.095 71.7136 61.015L71.9158 61.1161C71.1656 62.0152 69.7239 61.9886 68.6493 61.5949ZM74.4348 62.8185L74.23 62.6562C74.1129 62.713 73.9959 62.7662 73.8788 62.8158C72.203 63.5527 70.1336 64.2948 68.6839 65.5397L68.7477 65.8057C69.5178 65.1414 70.3819 64.5946 71.3119 64.1831C72.336 63.6883 73.416 63.2973 74.4348 62.8185ZM76.2968 67.8087C76.7907 67.1768 77.339 66.5894 77.9353 66.0531C77.8821 65.9945 77.8263 65.9387 77.7731 65.8828C76.2436 67.2128 75.1477 69.2451 73.6926 70.5352C72.8925 71.2774 71.9309 71.8238 70.8837 72.1312C70.9076 72.2003 70.9316 72.2695 70.9582 72.3386C71.6837 72.1312 72.3684 71.801 72.9824 71.3624C74.3576 70.4288 75.278 69.0855 76.2994 67.798L76.2968 67.8087ZM83.8538 73.0755C81.6407 76.0786 77.6268 76.7995 74.1049 77.3315C73.6793 77.3953 73.2537 77.4645 72.8281 77.5496C72.8574 77.6267 72.884 77.7065 72.9133 77.7863C74.4002 77.4831 75.9297 77.3554 77.4087 77.0176C79.8745 76.4537 82.4627 75.2859 84.0081 73.275L83.8538 73.0755ZM86.8676 98.9652C85.3461 98.5849 83.9629 99.0903 82.6249 99.7978C82.186 100.032 81.7418 100.279 81.2949 100.511L81.4465 100.708C83.25 99.7792 84.987 98.6221 87.0645 99.2977C87.7428 99.5185 88.3945 99.9521 88.6605 100.628C89.0063 101.508 88.6179 102.426 88.0034 103.078C87.1443 103.985 85.9712 104.346 84.8354 104.775L85.0322 104.995L86.0138 104.612C87.3677 104.08 88.9584 103.091 89.0568 101.463C89.1286 100.152 88.0593 99.2605 86.8703 98.9652H86.8676ZM81.5742 82.7392C82.6382 81.2257 83.6357 79.6536 84.7077 78.1374C85.1705 77.4804 85.6573 76.8074 86.1893 76.177L86.0377 75.9722C85.7531 76.3074 85.4844 76.6505 85.2237 76.9963C84.1438 78.43 83.1755 79.9436 82.1701 81.4279C80.6539 83.6649 78.8743 86.1839 76.5388 87.7347C76.5681 87.8172 76.5974 87.897 76.6293 87.9794C78.6296 86.6521 80.2389 84.6172 81.5769 82.7366L81.5742 82.7392ZM82.1062 86.7292C82.0237 87.3788 82.1186 88.0386 82.3809 88.6385C82.6431 89.2384 83.063 89.7562 83.5958 90.1367C84.8354 90.9879 86.2212 90.4639 87.1017 89.3733C87.6337 88.7296 87.9981 87.9901 88.4636 87.3091C89.0019 86.5082 89.6698 85.8025 90.44 85.221C90.8925 84.886 91.3905 84.6172 91.919 84.423L91.7673 84.1916C91.4379 84.3171 91.1209 84.4729 90.8204 84.6571C89.3175 85.5721 88.4024 86.9846 87.4821 88.4343C87.0086 89.1738 86.4394 89.9611 85.5642 90.2404C85.1908 90.3449 84.7962 90.3469 84.4218 90.2463C84.0474 90.1456 83.7069 89.9461 83.4362 89.6685C82.1594 88.4769 82.077 86.6441 83.0399 85.2423C84.056 83.758 85.8143 82.96 87.4768 82.428C88.328 82.162 89.2058 81.9333 90.0649 81.6593L89.9186 81.4438C88.1896 81.9998 86.3463 82.3881 84.8646 83.2659C83.5905 84.024 82.3536 85.2051 82.1195 86.7346L82.1062 86.7292ZM96.2042 91.3337C95.4851 92.2013 94.632 92.9484 93.6772 93.5468C92.1189 94.5815 90.3268 95.2106 88.4636 95.3769C86.6204 95.5436 84.7837 94.994 83.3351 93.8421C82.0716 92.826 80.9411 91.5651 79.2653 91.2885C78.7904 91.2096 78.3066 91.1997 77.8289 91.2592C77.8635 91.3523 77.8954 91.4428 77.93 91.5252C78.5878 91.4522 79.2536 91.5211 79.8825 91.7274C80.7656 92.0226 81.4944 92.6265 82.186 93.225C82.8288 93.8312 83.5351 94.3663 84.2927 94.821C85.038 95.2201 85.8489 95.4823 86.6867 95.595C88.3587 95.7985 90.0549 95.5696 91.6131 94.93C93.2968 94.265 95.1349 93.1212 96.3585 91.605L96.2042 91.3337ZM96.2175 114.313C96.4649 114.446 96.7096 114.579 96.949 114.686C97.7698 114.872 98.5586 115.179 99.2898 115.596C99.5984 115.682 99.912 115.75 100.229 115.798C99.4196 115.291 98.5524 114.884 97.6459 114.585C97.1811 114.447 96.7033 114.358 96.2202 114.319L96.2175 114.313ZM97.5475 93.6905L97.4305 93.483C95.1854 93.9644 93.0894 95.5711 92.2541 97.6166C91.5944 99.2312 91.9881 100.809 92.685 102.341C93.1232 103.197 93.5079 104.081 93.8368 104.985C94.099 105.816 94.2449 106.68 94.2704 107.552C94.3287 109.233 93.9001 110.896 93.0362 112.34L93.2436 112.483C93.9094 111.39 94.3254 110.163 94.4619 108.89C94.6404 107.277 94.4108 105.645 93.7943 104.144C93.0681 102.378 91.8338 100.638 92.1983 98.6327C92.6664 96.2334 95.0418 94.2198 97.5582 93.6958L97.5475 93.6905ZM103.415 106.786C102.689 107.019 101.944 107.191 101.189 107.299C100.285 107.411 99.1941 107.371 98.6621 106.501C98.279 105.873 98.3482 105.067 98.5557 104.392C99.0105 102.918 100.202 102.072 101.327 101.138C101.298 101.064 101.264 100.989 101.229 100.915C100.662 101.381 100.067 101.819 99.5558 102.309C98.6408 103.187 97.9598 104.58 98.1753 105.873C98.4413 107.496 100.09 107.722 101.46 107.509C102.142 107.383 102.814 107.211 103.471 106.993C103.474 106.935 103.447 106.863 103.426 106.791L103.415 106.786Z" fill="white"/>
<path opacity="0.1" d="M93.0042 112.324C86.6628 107.882 81.0103 100.133 81.0103 100.133C80.4597 98.2364 71.7216 74.8177 69.2371 67.415C68.3194 64.6778 68.0721 62.6483 68.4977 61.5231L93.0042 112.324Z" fill="black"/>
<path d="M80.5794 116.891H28.744C28.744 116.891 39.3467 75.6876 56.8628 58.637C59.2116 56.3494 68.3593 56.7351 70.4687 60.1798C78.3716 73.0994 80.723 116.707 80.5794 116.891Z" fill="#FFC727"/>
<path d="M73.9879 93.8075C71.9503 96.7016 74.1661 100.644 77.414 101.325C78.0811 101.461 78.7709 101.438 79.4276 101.258L79.4515 101.524C78.8452 101.689 78.2113 101.728 77.5895 101.636C74.7008 101.186 72.2695 98.1087 73.0436 95.1774C73.6394 92.8925 75.9696 91.3018 78.2785 91.23C78.2785 91.3257 78.3024 91.4188 78.3157 91.5146C78.1171 91.5172 77.919 91.5332 77.7225 91.5625C76.9814 91.6674 76.2688 91.9201 75.6273 92.3058C74.9857 92.6915 74.4282 93.2022 73.9879 93.8075ZM30.9704 109.56L30.8906 109.494C30.8613 109.581 30.8347 109.669 30.8081 109.76C32.8324 111.433 33.25 114.446 33.899 116.896H34.165C33.4734 114.329 33.0957 111.369 30.9704 109.56ZM39.634 94.664C41.2167 94.563 42.826 94.0336 43.7889 92.7063C44.5337 91.6822 44.9221 90.2404 44.3714 89.0434C43.733 87.6576 42.1743 87.2905 40.7804 87.3251C40.1766 87.3384 39.5808 87.3969 38.9876 87.4634L38.8759 87.7294C39.8428 87.5699 40.8264 87.5368 41.8019 87.631C42.6584 87.748 43.5016 88.1231 43.9804 88.8732C44.1706 89.1986 44.2943 89.5584 44.3445 89.9319C44.3947 90.3053 44.3704 90.6851 44.273 91.0491C43.8687 92.7914 42.4483 93.89 40.7565 94.257C39.2589 94.5816 37.7347 94.406 36.2345 94.1905L36.1387 94.4326C37.2934 94.6246 38.4641 94.7021 39.634 94.664ZM41.8657 114.053C40.3548 113.787 37.9289 115.228 37.115 113.255C36.5032 111.776 37.381 110.124 38.3173 109.012C39.4584 107.663 40.9321 106.655 42.3871 105.674C45.0737 103.857 51.5827 98.2949 48.4758 95.9382C45.5791 93.7437 41.8577 100.146 39.6792 102.155C37.7534 103.926 34.9338 105.53 32.178 105.49L32.0982 105.727C34.8832 105.775 37.6363 104.189 39.7058 102.474C42.4296 100.218 45.1136 94.3528 48.2604 96.151C50.8725 97.6432 46.002 102.875 43.3048 104.735C41.9455 105.674 40.5331 106.554 39.2935 107.661C38.1976 108.634 37.1229 109.837 36.7904 111.305C36.5457 112.39 36.6707 113.784 37.7746 114.353C38.4769 114.718 39.2722 114.579 40.0144 114.438C40.948 114.258 41.8232 114.149 42.6903 114.619C43.1232 114.858 43.5023 115.183 43.8043 115.574C44.1063 115.965 44.3247 116.415 44.4459 116.894H44.7305C44.7305 116.894 44.7305 116.894 44.7305 116.88C44.3661 115.532 43.2596 114.313 41.8577 114.055L41.8657 114.053ZM60.8289 81.2204C60.1742 80.843 59.4247 80.6621 58.67 80.6994C57.9152 80.7366 57.1872 80.9905 56.5729 81.4305C55.2429 82.3722 54.4262 83.8937 53.8011 85.362C53.1042 87.0032 52.4711 88.82 51.1145 90.0356C50.3804 90.698 49.2233 91.2779 48.3215 90.5676C47.7337 90.1048 47.5235 89.2882 47.489 88.5673C47.4384 87.0245 48.3588 85.5668 49.2791 84.4018C50.2314 83.1915 51.3433 82.1195 52.3036 80.9145C53.1947 79.7973 53.9767 78.5205 54.1868 77.0841C54.2906 76.3739 54.1868 75.6051 53.6043 75.129C53.1012 74.7725 52.48 74.6238 51.87 74.714C50.3591 74.8603 49.069 75.9589 48.1593 77.108C47.652 77.7593 47.2067 78.4566 46.8293 79.1908C46.417 79.9755 46.1111 80.8134 45.6935 81.5848C45.2093 82.4892 44.3768 82.9281 43.3713 82.6195C42.71 82.4011 42.1365 81.9758 41.7354 81.4066C41.6981 81.4837 41.6609 81.5609 41.6263 81.638C42.3658 82.5451 43.4724 83.2526 44.6507 82.8696C45.3982 82.6249 45.7999 81.9492 46.1084 81.2736C46.4649 80.4756 46.8107 79.6962 47.2309 78.9408C48.0742 77.4219 49.2472 75.8658 50.9124 75.1928C51.612 74.9109 52.5084 74.7965 53.2026 75.1609C54.1682 75.669 54.0459 76.8553 53.7932 77.7518C52.9473 80.723 50.1516 82.6009 48.4732 85.0721C47.7071 86.2052 47.0713 87.5725 47.2522 88.9743C47.4171 90.2351 48.3162 91.4082 49.7127 91.1023C51.3539 90.7458 52.4233 89.0142 53.0909 87.615C53.8517 86.019 54.3624 84.314 55.445 82.8988C56.5276 81.4837 58.1901 80.5368 59.991 81.1512C61.9195 81.8083 63.0234 83.7128 63.0952 85.6732C63.2282 89.2563 60.7012 92.2222 58.1263 94.3847C55.6472 96.4622 52.8462 98.1539 50.5533 100.455C48.013 103.015 46.3601 106.322 45.8371 109.89C45.5152 112.079 45.5179 114.712 46.4037 116.886H46.7388C46.4766 116.242 46.2823 115.572 46.159 114.888C45.478 111.233 46.3079 107.275 48.138 104.07C49.9016 100.982 52.6733 98.8668 55.4796 96.784C57.9481 94.9513 60.5336 93.0414 62.095 90.3256C63.7655 87.4608 64.1618 83.0797 60.8209 81.223L60.8289 81.2204ZM69.4659 98.1353C69.4375 97.3227 69.2201 96.5279 68.8309 95.8141C68.4416 95.1002 67.8912 94.4869 67.2235 94.023C66.6184 93.6073 65.904 93.3797 65.1699 93.3688C64.4359 93.3579 63.715 93.5642 63.0978 93.9618C61.8184 94.7811 60.9911 96.2308 60.6746 97.6858C60.2144 99.8005 60.5974 101.971 60.64 104.104C60.7106 108.194 59.6055 112.219 57.456 115.699C57.2033 116.106 56.924 116.497 56.6367 116.891H56.9985C57.8642 115.708 58.5857 114.425 59.1477 113.071C59.9262 111.265 60.455 109.362 60.7198 107.413C60.9991 105.36 60.8688 103.346 60.7597 101.295C60.656 99.3217 60.7198 97.2549 61.8716 95.5684C62.885 94.0841 64.6566 93.1744 66.4149 93.9139C68.1731 94.6534 69.16 96.526 69.1972 98.388C69.3036 102.237 66.5372 105.469 64.6406 108.568C63.7362 110.041 62.9249 111.6 62.5446 113.297C62.2812 114.48 62.2415 115.702 62.4275 116.899H62.6935C62.4782 115.54 62.558 114.151 62.9276 112.827C63.9038 109.369 66.4494 106.653 68.0747 103.517C68.9286 101.846 69.5749 100.016 69.4579 98.138L69.4659 98.1353ZM77.1932 109.839C76.2037 108.658 74.7699 107.874 73.2032 108.028C71.7668 108.169 70.5059 109.092 70.1974 110.542C69.8436 112.217 70.7294 113.957 71.6471 115.3C72.0035 115.832 72.4078 116.346 72.7935 116.883H73.0941C72.3706 115.846 71.5593 114.861 71.0087 113.715C70.2107 112.055 69.9447 109.778 71.8067 108.711C73.3787 107.804 75.3152 108.331 76.5681 109.523C77.9247 110.816 78.5604 112.662 78.9381 114.452C79.1057 115.25 79.2334 116.048 79.3611 116.883H79.6138C79.2254 114.375 78.8477 111.829 77.1852 109.847L77.1932 109.839ZM60.8342 57.2671C60.6888 57.2813 60.5451 57.2972 60.4033 57.315C59.7967 58.0224 59.0969 58.6443 58.3231 59.1637C57.2584 59.8891 56.0784 60.4287 54.8332 60.7597L54.5087 61.1267C54.8097 61.0656 55.1071 60.9883 55.3998 60.8953C57.3496 60.2676 59.4829 59.0041 60.8342 57.2671ZM61.2066 64.6433C60.8868 64.0064 60.8047 63.2764 60.9752 62.5844C61.2731 61.2331 62.353 59.9244 63.7682 59.6983C65.6009 59.4004 67.0479 61.0124 68.6493 61.5949C69.4632 61.8928 70.4847 61.9806 71.2614 61.6162C71.2321 61.5523 71.2002 61.4912 71.1709 61.4327C70.4767 61.7838 69.6095 61.6986 68.886 61.4566C67.2581 60.9246 65.96 59.427 64.1485 59.4483C61.7545 59.4802 59.9191 62.5259 60.9565 64.6725C61.321 65.4173 62.0205 65.9227 62.619 66.4547C63.2445 66.9735 63.7454 67.6262 64.0847 68.3646C64.3904 69.0574 64.5521 69.8052 64.5599 70.5624C64.5676 71.3197 64.4214 72.0706 64.1299 72.7696C63.853 73.4469 63.3875 74.0306 62.7887 74.4512C62.1898 74.8718 61.4829 75.1117 60.7517 75.1423C60.0541 75.1596 59.3618 75.0174 58.7274 74.7265C58.0931 74.4357 57.5336 74.0038 57.0916 73.4638C56.6672 72.9337 56.4255 72.2805 56.4026 71.6018C56.3787 70.6921 56.7218 69.809 56.9346 68.9418C57.2724 67.6517 57.323 65.96 55.8467 65.3694C54.663 64.8933 53.2612 65.4865 52.3355 66.2393C51.0986 67.2421 50.5985 68.8248 49.9069 70.2027C49.1674 71.6737 48.0875 73.0702 46.3292 73.2298C46.2175 73.2298 46.1084 73.2457 45.9994 73.2457C45.9515 73.3308 45.9036 73.4186 45.8531 73.5117H45.9222C47.3427 73.525 48.529 72.7855 49.351 71.6497C50.3192 70.3197 50.7342 68.6705 51.6705 67.3139C52.4685 66.1621 54.1789 65.0981 55.6206 65.553C57.7193 66.2153 56.666 68.8115 56.3202 70.2638C56.0063 71.5752 56.1526 72.8121 57.0809 73.8389C58.7913 75.7248 62.0205 75.9669 63.691 73.9187C65.4041 71.8067 65.037 68.4125 63.0925 66.5744C62.4648 65.9653 61.6402 65.4599 61.2066 64.6433ZM68.8488 72.3014C70.2612 72.8334 71.82 72.1817 72.9851 71.3757C73.4793 71.03 73.9358 70.6333 74.347 70.192L74.2831 69.9633C74.0943 70.1654 73.8974 70.3596 73.6953 70.5405C72.469 71.6284 70.6017 72.7217 68.9206 72.0833C67.1889 71.4263 66.8218 69.4047 67.3698 67.8273C67.9869 66.0371 69.6813 64.9518 71.3119 64.1857C71.6152 64.0439 71.9211 63.9082 72.2296 63.7788C72.2057 63.7096 72.1764 63.6431 72.1472 63.5739C69.6521 64.6566 67.04 66.0584 66.8884 69.0482C66.8192 70.4261 67.4948 71.788 68.8488 72.3014ZM77.672 86.8835C76.6091 87.8239 75.3522 88.5187 73.9905 88.9184C72.0886 89.4504 70.1601 88.9876 68.9525 87.3677C68.433 86.6412 68.0409 85.8316 67.7927 84.9737C67.4656 83.9097 67.2288 82.7632 67.5267 81.6699C68.0109 79.8345 69.7718 78.6854 71.4848 78.1481C72.9531 77.6852 74.4959 77.531 76.0068 77.2836C75.9882 77.1985 75.9722 77.1133 75.9563 77.0176C75.3338 77.1293 74.7141 77.2277 74.1102 77.3182C72.3147 77.5842 70.4714 77.9566 69.0084 79.1004C68.343 79.59 67.8218 80.2498 67.4993 81.0103C67.1768 81.7709 67.065 82.6042 67.1756 83.4229C67.3858 85.0667 68.0428 86.8809 69.2212 88.0672C70.3995 89.2536 72.0487 89.5914 73.6554 89.2509C75.1591 88.8972 76.5524 88.1782 77.7119 87.1575C77.6933 87.075 77.672 86.9793 77.672 86.8835Z" fill="white"/>
<path d="M102.915 114.106C99.1914 117.963 91.7594 118.306 70.5405 119.085C67.6145 119.195 61.2704 98.678 64.3986 98.4013C68.3407 98.0529 83.7129 97.5581 84.8407 97.6618C94.3608 98.5529 105.437 111.491 102.915 114.106Z" fill="#D3766A"/>
<path d="M71.2268 98.8961C71.2268 98.8961 62.8664 97.0341 58.1715 97.4198C51.8859 97.9332 46.6697 100.966 44.5603 102.367C40.158 105.293 31.5263 115.401 34.0187 118.405C36.2664 121.112 44.555 110.323 44.555 110.323C44.555 110.323 34.2874 119.929 37.5911 122.692C40.8948 125.456 49.8058 112.382 49.8058 112.382C49.8058 112.382 39.4797 122.49 43.3367 124.799C46.2627 126.547 54.9902 115.162 54.9902 115.162C54.9902 115.162 46.1723 123.924 49.0929 125.834C52.3222 127.962 61.047 117.958 61.047 117.958C69.293 121.602 74.7141 119.963 78.4274 118.338C79.3265 117.944 71.2268 98.8961 71.2268 98.8961Z" fill="#D3766A"/>
<path d="M47.8933 106.772C46.6458 107.858 45.377 108.948 44.2305 110.14C43.084 111.332 41.9801 112.563 40.9481 113.864C38.4211 117.037 37.3358 119.418 37.4182 119.277C39.384 115.973 43.4219 111.643 44.5683 110.451C45.7148 109.259 46.7974 108.015 47.9412 106.823C47.9705 106.786 47.9226 106.748 47.8933 106.772Z" fill="#263238"/>
<path d="M52.2717 110.834C50.7395 112.287 49.1648 113.675 47.6965 115.197C46.2282 116.718 44.9806 118.277 43.624 119.889C43.5203 120.011 43.624 120.027 43.7304 119.907C45.1455 118.351 46.5766 117.021 48.0104 115.484C49.4441 113.946 50.8193 112.348 52.3036 110.869C52.3329 110.845 52.2956 110.813 52.2717 110.834Z" fill="#263238"/>
<path d="M56.658 113.643C54.2028 115.745 52.136 118.298 50.1729 120.849C50.0745 120.977 50.2075 120.982 50.3139 120.849C52.4259 118.412 54.0618 116.484 56.7298 113.718C56.7724 113.686 56.7085 113.598 56.658 113.643Z" fill="#263238"/>
<path d="M66.8458 97.8268L81.7046 120.756C81.7046 120.756 100.059 119.064 103.479 114.811C105.735 112.013 94.5018 97.8055 83.9071 97.6193L66.8458 97.8268Z" fill="#FFC727"/>
<path d="M69.4579 98.138C69.5087 99.1799 69.3671 100.222 69.0403 101.213L68.8621 100.947C69.1037 100.117 69.2168 99.2549 69.1972 98.3907C69.192 98.1958 69.176 98.0013 69.1493 97.8082H69.4153C69.4366 97.9146 69.4508 98.0245 69.4579 98.138ZM73.4479 108.02L73.6075 108.265C74.7114 108.31 75.7599 108.761 76.5521 109.531C77.9087 110.824 78.5445 112.67 78.9222 114.46C79.111 115.346 79.2467 116.263 79.3877 117.186L79.7175 117.697C79.2893 114.928 79.0233 112.042 77.1825 109.847C76.2515 108.733 74.9215 107.964 73.4506 108.02H73.4479ZM93.8022 104.158C93.2702 102.883 92.4908 101.625 92.2302 100.269L91.9828 100.122C92.1129 100.894 92.352 101.642 92.693 102.346C93.1312 103.203 93.5158 104.086 93.8448 104.99C94.107 105.822 94.2529 106.686 94.2784 107.557C94.3848 111.06 92.4669 114.494 88.9717 115.479C85.8275 116.364 82.2605 115.005 81.38 111.672C80.991 110.253 81.1496 108.74 81.8242 107.432C82.7153 105.78 84.3645 105.272 86.0084 104.62C87.3624 104.088 88.953 103.099 89.0515 101.471C89.1286 100.141 88.0593 99.2579 86.8703 98.9626C85.3487 98.5822 83.9655 99.0876 82.6276 99.7952C81.0023 100.654 79.3345 101.726 77.414 101.322C76.5029 101.114 75.6603 100.675 74.9665 100.049C74.2727 99.4229 73.7508 98.6294 73.4506 97.7443H73.1287C73.4553 98.7322 74.0414 99.6142 74.8257 100.298C75.61 100.982 76.5636 101.442 77.5869 101.631C81.0449 102.163 83.5852 98.1726 87.0618 99.2924C87.7401 99.5132 88.3918 99.9468 88.6578 100.622C89.0036 101.503 88.6152 102.421 88.0008 103.072C86.6548 104.493 84.5428 104.573 83 105.682C80.8108 107.256 80.4144 110.456 81.5263 112.789C82.8377 115.542 86.1255 116.479 88.9291 115.737C92.1025 114.896 94.1241 112.076 94.4752 108.887C94.6501 107.279 94.4197 105.653 93.8049 104.158H93.8022ZM100.601 107.586L100.407 107.347C99.7234 107.328 99.0531 107.134 98.67 106.512C98.4322 106.095 98.3387 105.612 98.404 105.136L98.1726 104.905C98.1223 105.229 98.1223 105.56 98.1726 105.884C98.396 107.166 99.484 107.578 100.604 107.586H100.601ZM97.6486 114.59C96.3931 114.218 94.9194 114.151 93.7065 114.712C92.4137 115.308 91.8657 116.574 92.044 117.963C92.1085 118.374 92.1973 118.781 92.31 119.181L92.5334 119.139C92.2674 118.048 92.0466 116.96 92.6398 115.968C93.4059 114.691 95.1136 114.452 96.4675 114.609C98.1646 114.806 99.5718 115.758 101.029 116.569L101.319 116.423C100.112 115.755 98.952 114.976 97.6486 114.59Z" fill="white"/>
<path d="M95.7946 102.788C90.4613 98.4412 88.6578 97.6911 80.2629 97.59C80.1937 97.59 80.1804 97.6778 80.2496 97.6805C89.4558 98.0954 93.7065 101.498 95.7334 102.857C95.7866 102.889 95.8425 102.828 95.7946 102.788Z" fill="#263238"/>
<path d="M87.1655 118.173C85.668 115.564 84.0294 113.037 82.3775 110.515C80.7257 107.993 79.0925 105.461 77.3847 102.985C76.4192 101.58 75.4616 100.173 74.4587 98.803C74.4321 98.7684 74.3656 98.803 74.3896 98.8429C75.8845 101.45 77.5124 103.985 79.1377 106.512C80.7629 109.039 82.4201 111.566 84.0986 114.069C85.0482 115.481 86.0217 116.878 87.0246 118.248C87.0857 118.314 87.2108 118.248 87.1655 118.173Z" fill="#263238"/>
<path opacity="0.1" d="M85.5828 97.7603L73.3468 107.868L66.8378 97.8268L83.9044 97.6193C84.1039 97.6193 84.3061 97.6326 84.5082 97.6459L85.4632 97.7496L85.5828 97.7603Z" fill="black"/>
<path d="M50.6065 72.8094C48.428 97.4038 51.8328 116.995 62.1589 118.407C69.0164 119.343 67.298 98.5476 67.282 98.1034C67.2288 96.5819 66.4388 83.891 61.5763 70.0856C56.2271 54.8997 51.5801 61.821 50.6065 72.8094Z" fill="#D3766A"/>
<path d="M50.6065 72.8094C48.428 97.4038 51.8328 116.995 62.1589 118.407C69.0164 119.343 69.9766 101.806 69.9607 101.362C69.9048 99.8404 66.4388 83.891 61.5763 70.0856C56.2271 54.8997 51.5801 61.821 50.6065 72.8094Z" fill="#FFC727"/>
<path d="M62.1722 71.8359C63.6751 76.467 65.0423 81.1459 66.3697 85.8275C67.6332 90.5277 68.9818 95.2226 69.7745 100.029C67.9736 91.7833 64.4146 80.1059 62.1722 71.8333V71.8359Z" fill="#263238"/>
<path d="M63.4437 72.985C63.7841 74.315 64.0395 75.7328 63.7256 77.0788C63.7655 75.7302 63.5155 74.331 63.4437 72.985Z" fill="#263238"/>
<path d="M51.6945 67.3219C51.5748 67.4948 51.4657 67.6704 51.3593 67.8539C51.4143 67.6074 51.4728 67.3654 51.5349 67.1277C51.7707 66.8008 52.0479 66.5058 52.3595 66.2499C53.2851 65.4972 54.687 64.904 55.8707 65.3801C57.347 65.9706 57.2964 67.6624 56.9586 68.9525C56.7325 69.8197 56.3894 70.7028 56.4266 71.6125C56.4495 72.2912 56.6912 72.9443 57.1155 73.4745C57.5576 74.0144 58.1171 74.4463 58.7514 74.7372C59.3857 75.0281 60.0781 75.1703 60.7757 75.153C61.5946 75.1311 62.3821 74.833 63.0101 74.3071C63.0394 74.3895 63.066 74.472 63.0926 74.5571C61.3343 75.9137 58.6317 75.5254 57.1182 73.8575C56.1899 72.8308 56.0542 71.5939 56.3574 70.2825C56.7032 68.8301 57.7566 66.234 55.6579 65.5716C54.2028 65.1061 52.4898 66.1701 51.6945 67.3219ZM54.1895 77.0921C54.2933 76.3819 54.1895 75.6131 53.607 75.137C53.1043 74.777 52.4819 74.6255 51.87 74.7141C51.3569 74.7671 50.859 74.9198 50.4044 75.1636C50.4044 75.2567 50.3884 75.3498 50.3831 75.4429C50.5545 75.3467 50.7322 75.2623 50.9151 75.1902C51.6147 74.9082 52.5111 74.7939 53.2053 75.1583C54.1709 75.6663 54.0486 76.8527 53.7959 77.7491C53.1761 79.925 51.5109 81.5157 50.0107 83.1808C50.0107 83.3005 50.0107 83.4202 50.0107 83.5373C50.7741 82.6621 51.5854 81.8295 52.3089 80.9198C53.2 79.8053 53.9794 78.5312 54.1895 77.0921ZM62.1137 90.3309C63.7655 87.4608 64.1619 83.0798 60.8209 81.2231C60.1663 80.8457 59.4168 80.6648 58.662 80.702C57.9073 80.7393 57.1792 80.9931 56.5649 81.4332C55.2349 82.3749 54.4183 83.8964 53.7932 85.3647C53.0963 87.0059 52.4632 88.8227 51.1066 90.0383C50.7935 90.3252 50.4337 90.5564 50.0426 90.7219C50.0426 90.8177 50.0426 90.9108 50.0559 91.0039C51.5056 90.4985 52.4712 88.9131 53.091 87.6151C53.8517 86.0191 54.3624 84.314 55.4451 82.8989C56.5277 81.4837 58.1902 80.5368 59.991 81.1513C61.9195 81.8083 63.0234 83.7128 63.0952 85.6733C63.2282 89.2563 60.7012 92.2222 58.1263 94.3848C55.7669 96.3611 53.1176 97.9891 50.8911 100.125C50.9098 100.25 50.9284 100.375 50.9497 100.497C52.3696 99.1537 53.8805 97.9094 55.4717 96.7734C57.9667 94.9567 60.5496 93.0468 62.1137 90.3309ZM68.0801 103.498C68.8781 101.968 69.4819 100.277 69.4712 98.5397C69.4712 98.404 69.4712 98.2737 69.4579 98.138C69.415 97.4111 69.2344 96.6989 68.9259 96.0393C68.5521 95.2218 67.958 94.5246 67.2102 94.0257C66.6052 93.6099 65.8907 93.3823 65.1567 93.3715C64.4226 93.3606 63.7017 93.5669 63.0846 93.9645C61.8051 94.7838 60.9779 96.2335 60.6613 97.6885C60.2011 99.8032 60.5842 101.974 60.6267 104.107C60.7008 108.195 59.6003 112.218 57.456 115.699C57.3975 115.795 57.3363 115.888 57.2751 115.984C57.347 116.053 57.4214 116.12 57.4959 116.186C58.1389 115.199 58.6917 114.157 59.1478 113.071C59.9262 111.265 60.4551 109.362 60.7198 107.413C60.9991 105.36 60.8688 103.346 60.7597 101.295C60.656 99.3217 60.7198 97.2549 61.8716 95.5685C62.8851 94.0842 64.6566 93.1745 66.4149 93.9139C68.1732 94.6534 69.16 96.5261 69.1973 98.3881C69.3037 102.237 66.5373 105.469 64.6407 108.568C63.7363 110.042 62.925 111.6 62.5446 113.297C62.1882 114.907 62.244 116.58 62.7069 118.162C62.7335 118.258 62.7654 118.354 62.7946 118.45C62.8851 118.45 62.9755 118.45 63.0606 118.431C62.4674 116.616 62.422 114.667 62.9303 112.827C63.9092 109.358 66.4548 106.634 68.0801 103.498Z" fill="white"/>
<path d="M50.1383 76.1824C50.1091 82.186 50.2634 88.1976 50.7608 94.1773C51.3912 101.66 53.1548 117.434 62.7308 118.178C64.231 118.269 65.6142 117.976 66.8272 117.037C68.644 115.737 70.1628 114.063 71.6152 112.372C74.5066 108.956 77.1294 105.166 79.5606 101.482L78.9781 100.888L79.5819 101.46C78.8158 102.758 78.0045 104.027 77.1879 105.288C74.754 108.919 69.1387 117.258 65.0131 118.452C59.9591 119.572 56.1606 116.101 54.1071 111.818C49.5851 102.261 49.8511 86.7665 50.1304 76.1744L50.1383 76.1824Z" fill="#263238"/>
<path d="M49.6436 77.6693C49.7712 78.8078 49.9574 79.9064 50.0798 81.0449C49.6678 79.9704 49.5183 78.8132 49.6436 77.6693Z" fill="#263238"/>
<path d="M67.6917 71.788C67.6917 71.788 58.8419 63.691 53.2958 64.074L48.7232 68.4098C48.7232 68.4098 47.1937 68.9684 46.6804 68.0028C45.4169 65.6088 44.9859 59.7568 49.9016 55.7881C54.405 52.1466 63.9092 52.5429 70.2746 53.9953C76.3926 55.3891 79.8506 58.8445 78.1189 62.8584C76.3872 66.8723 67.6917 71.788 67.6917 71.788Z" fill="#FFC727"/>
<path opacity="0.1" d="M68.237 69.9101C68.237 69.9101 75.02 64.7151 75.6398 61.7465C76.2595 58.7779 70.2745 56.1605 66.4335 55.1896C60.4884 53.6814 56.4904 54.1948 53.2958 57.4479C50.1011 60.7011 68.237 69.9101 68.237 69.9101Z" fill="black"/>
<path d="M69.2159 68.9206C66.0451 69.3196 61.2359 64.0235 59.5574 59.967C59.443 59.701 60.1426 56.9639 60.8369 53.6123C61.2492 51.5774 61.6615 49.3031 61.8876 47.199C61.9328 46.7654 74.738 51.8194 74.738 51.8194C74.738 51.8194 72.9691 56.0914 72.5967 59.7622C72.5715 60.0524 72.5715 60.3444 72.5967 60.6347C72.5967 60.6746 72.5967 60.7251 72.5967 60.781C72.6898 62.4488 72.2802 68.5322 69.2159 68.9206Z" fill="#D3766A"/>
<path d="M71.2375 60.7038C71.6874 60.7691 72.1423 60.794 72.5967 60.7783C72.5967 60.7224 72.5967 60.6746 72.5967 60.632C72.5689 60.3418 72.5689 60.0497 72.5967 59.7595C72.9665 56.094 74.7247 51.8221 74.7247 51.8221C74.7247 51.8221 64.3294 47.7177 62.2227 47.2203C62.3983 49.6941 63.4729 59.6983 71.2375 60.7038Z" fill="#263238"/>
<path d="M57.6901 36.6095C57.3576 41.5172 62.8558 54.1948 66.8032 56.3893C72.5249 59.5813 80.3692 58.1795 82.6728 51.6545C84.9152 45.3264 77.4565 28.9328 73.1899 27.0974C66.9096 24.3922 58.1822 29.3584 57.6901 36.6095Z" fill="#D3766A"/>
<path d="M72.4797 41.9029C72.4584 41.8737 72.4292 41.9721 72.4451 42.0067C72.8388 42.8526 73.1474 43.8846 72.4957 44.4991C72.4744 44.5204 72.4957 44.5603 72.5223 44.5443C73.416 44.007 72.9878 42.6398 72.4797 41.9029Z" fill="#263238"/>
<path d="M71.3332 41.3364C69.9128 41.8232 70.9847 44.6295 72.3014 44.1799C73.6181 43.7304 72.5249 40.9321 71.3332 41.3364Z" fill="#263238"/>
<path d="M77.7678 39.7483C77.7678 39.7111 77.8502 39.7483 77.8635 39.7989C78.1668 40.6793 78.6615 41.6343 79.5633 41.6236C79.5899 41.6236 79.6032 41.6662 79.5633 41.6742C78.5631 41.9056 77.9141 40.6288 77.7678 39.7483Z" fill="#263238"/>
<path d="M78.204 38.5381C79.5606 37.897 80.7443 40.666 79.4861 41.2512C78.2279 41.8364 77.0575 39.0701 78.204 38.5381Z" fill="#263238"/>
<path d="M70.1256 41.4481C70.5133 41.3107 70.8933 41.1526 71.2641 40.9746C71.7003 40.7884 72.0621 40.6846 72.3281 40.2697C72.3914 40.1446 72.4114 40.002 72.3849 39.8643C72.3584 39.7266 72.287 39.6016 72.1818 39.5089C71.711 39.1339 71.1178 39.2296 70.5858 39.4344C70.0425 39.6176 69.5871 39.9971 69.309 40.4984C69.019 41.0251 69.5936 41.613 70.1256 41.4481Z" fill="#263238"/>
<path d="M78.2678 36.2159C77.8617 36.2831 77.4524 36.3293 77.0416 36.3542C76.5708 36.4021 76.1983 36.4872 75.7648 36.2558C75.6487 36.1769 75.5618 36.062 75.5175 35.9288C75.4733 35.7956 75.4742 35.6516 75.5201 35.5189C75.7541 34.963 76.318 34.7608 76.8793 34.681C77.4465 34.5807 78.0308 34.6954 78.5179 35.0029C79.0286 35.3115 78.8105 36.1041 78.2678 36.2159Z" fill="#263238"/>
<path d="M74.7194 49.9761C75.004 50.1011 75.3206 50.3006 75.6451 50.2075C75.9663 50.077 76.2563 49.8803 76.4963 49.6303C76.5008 49.6241 76.5074 49.6199 76.5148 49.6182C76.5222 49.6165 76.53 49.6175 76.5367 49.621C76.5435 49.6245 76.5487 49.6304 76.5516 49.6374C76.5544 49.6445 76.5546 49.6523 76.5522 49.6595C76.493 49.878 76.376 50.0766 76.2136 50.2343C76.0512 50.3921 75.8493 50.5031 75.6291 50.5559C75.2089 50.6357 74.8843 50.3697 74.6503 50.0479C74.6183 49.9973 74.6769 49.9521 74.7194 49.9761Z" fill="#263238"/>
<path d="M75.2567 48.6008C76.1877 47.7363 77.6507 47.3267 78.6003 47.09C78.6934 47.0368 78.7094 46.8027 78.6881 46.7016L77.9194 44.8875C78.2093 44.9141 79.6564 44.9886 79.5021 44.6507C78.22 41.8577 76.7942 38.7509 74.9295 36.2398C74.9183 36.2201 74.8996 36.2056 74.8776 36.1996C74.8557 36.1936 74.8323 36.1966 74.8125 36.2079C74.7928 36.2192 74.7783 36.2379 74.7723 36.2598C74.7663 36.2818 74.7693 36.3052 74.7806 36.3249C75.9058 39.0568 77.5044 41.5758 78.6802 44.3049C78.228 44.3049 77.4805 44.281 77.1373 44.4246C77.0522 44.4858 78.0497 46.3026 78.1322 46.6112C78.1322 46.6112 76.1744 46.7681 75.0971 48.2364C74.8152 48.6088 74.8099 49.0131 75.2567 48.6008Z" fill="#263238"/>
<path d="M60.5176 48.646C62.6616 48.4492 63.2761 44.938 63.3133 43.5388C63.3505 42.1397 61.3875 36.9341 61.6428 34.7608C61.8982 32.5876 63.9118 31.1619 65.686 31.0368C67.4602 30.9118 70.3197 32.2179 71.4556 31.6646C72.5914 31.1113 71.9078 28.4513 72.727 28.1401C74.5305 27.4565 76.983 31.1725 78.063 33.0265C78.063 33.0265 75.7355 23.9825 66.1648 26.6425C57.4374 29.0365 56.9293 35.9073 57.1607 38.7269C57.5996 44.1028 60.5176 48.646 60.5176 48.646Z" fill="#263238"/>
<path d="M73.3309 47.6432C72.619 47.8483 71.8638 47.8494 71.1513 47.6466C70.4388 47.4437 69.7975 47.0449 69.3004 46.4956C68.8033 45.9463 68.4704 45.2685 68.3394 44.5394C68.2085 43.8102 68.2848 43.0589 68.5597 42.371C68.8347 41.683 69.2971 41.0861 69.8946 40.648C70.492 40.2099 71.2003 39.9482 71.9391 39.8928C72.6779 39.8374 73.4174 39.9904 74.0734 40.3345C74.7295 40.6786 75.2759 41.1999 75.6504 41.8391C76.1795 42.7453 76.3276 43.8243 76.0623 44.8395C75.7971 45.8547 75.14 46.7233 74.2352 47.2548C73.9508 47.4209 73.6471 47.5513 73.3309 47.6432ZM71.288 40.5437C71.0138 40.6221 70.751 40.7357 70.5059 40.8815C69.7568 41.3231 69.2042 42.0337 68.9606 42.8684C68.717 43.7032 68.8007 44.5995 69.1947 45.3747C69.5887 46.1499 70.2634 46.7458 71.0814 47.041C71.8993 47.3363 72.799 47.3087 73.5973 46.9638C74.3956 46.619 75.0325 45.9828 75.3782 45.1849C75.7239 44.387 75.7525 43.4873 75.4582 42.669C75.1639 41.8508 74.5687 41.1754 73.7939 40.7806C73.0192 40.3857 72.123 40.301 71.288 40.5437Z" fill="#EBEBEB"/>
<path d="M81.6859 44.0815C80.2309 44.5018 78.4939 43.3925 77.6959 41.488C77.2974 40.5845 77.1922 39.5788 77.3954 38.6125C77.4709 38.1976 77.6453 37.807 77.9036 37.4736C78.162 37.1403 78.4967 36.874 78.8796 36.6973C79.6244 36.3834 80.4756 36.4872 81.2869 36.9793C82.1184 37.5111 82.7629 38.2896 83.1303 39.2057C83.9735 41.2193 83.4415 43.3686 81.944 43.9937C81.8602 44.0291 81.7739 44.0584 81.6859 44.0815ZM79.268 37.1203C79.203 37.1388 79.139 37.161 79.0765 37.1868C78.7708 37.3314 78.5046 37.5476 78.3003 37.8171C78.0961 38.0867 77.96 38.4015 77.9034 38.7349C77.7252 39.5913 77.8182 40.482 78.1694 41.2832C78.9036 43.0255 80.4943 44.0283 81.7258 43.5096C82.9574 42.9909 83.3591 41.1555 82.6276 39.4105C82.3045 38.5973 81.7353 37.9053 80.9997 37.4315C80.7485 37.262 80.4648 37.1469 80.1666 37.0933C79.8685 37.0397 79.5624 37.0489 79.268 37.1203Z" fill="#EBEBEB"/>
<path d="M75.7036 42.3126L75.2328 42.0705C75.5919 41.3736 76.6107 40.2085 77.8928 40.791L77.6773 41.2725C76.5282 40.7511 75.7382 42.262 75.7036 42.3126Z" fill="#EBEBEB"/>
<path d="M59.85 50.0771L59.318 50.0345C59.3366 49.7898 59.5388 47.6139 60.5549 46.9808C61.5045 46.3903 68.3008 44.257 68.5881 44.1666L68.7477 44.672C66.7979 45.2811 61.5657 46.9702 60.8342 47.4277C60.1586 47.848 59.8872 49.4812 59.85 50.0771Z" fill="#EBEBEB"/>
<path d="M63.9012 46.9835C63.9012 46.9835 59.85 43.4777 58.1742 45.0311C56.4984 46.5845 60.3208 52.1918 62.8052 52.4631C65.2897 52.7345 65.5823 50.4362 65.5823 50.4362L63.9012 46.9835Z" fill="#D3766A"/>
<path d="M59.318 46.6111C59.3095 46.6111 59.3014 46.6145 59.2954 46.6205C59.2894 46.6265 59.2861 46.6346 59.2861 46.643C59.2861 46.6515 59.2894 46.6596 59.2954 46.6656C59.3014 46.6716 59.3095 46.675 59.318 46.675C61.0736 46.917 62.2866 48.1805 63.2601 49.5611C62.6377 49.0929 61.9115 48.9333 61.2651 49.6967C61.2332 49.7366 61.2891 49.7925 61.3316 49.7712C61.9461 49.4653 62.4462 49.46 63.0181 49.8696C63.4104 50.1845 63.7671 50.5413 64.0821 50.9336C64.1938 51.056 64.4305 50.915 64.3348 50.766C64.3292 50.7536 64.3221 50.742 64.3135 50.7315C63.84 48.7019 61.5364 46.252 59.318 46.6111Z" fill="#263238"/>
<path d="M68.237 69.9101C68.237 69.9101 60.9778 58.5093 52.3594 57.6448L53.2958 64.0741C53.2958 64.0741 58.4136 63.9145 67.6917 71.7881L68.237 69.9101Z" fill="#FFC727"/>
<path d="M50.9869 64.2629C52.551 64.0155 54.123 64.3108 55.6126 64.7257C57.105 65.1701 58.5418 65.7832 59.8952 66.5532C61.2594 67.3064 62.572 68.1497 63.824 69.0775L65.6674 70.5219L67.447 72.0514L67.6465 72.2243L67.8593 72.1072C69.4319 71.2298 70.9427 70.246 72.3813 69.1626C73.109 68.6308 73.8036 68.0552 74.4614 67.4389C75.1254 66.8314 75.7285 66.1606 76.2622 65.436C75.0333 66.7447 73.5783 67.7794 72.1073 68.7743C71.3678 69.2664 70.607 69.7292 69.8383 70.1734C69.0696 70.6176 68.2982 71.0672 67.5161 71.4688L67.9258 71.522L66.1436 69.9393C65.5291 69.4366 64.9013 68.9472 64.2816 68.4604C63.6618 67.9736 62.9755 67.5453 62.3025 67.1304C61.6295 66.7154 60.9379 66.3005 60.2144 65.96C58.7935 65.2205 57.2836 64.6662 55.7217 64.3108C55.336 64.215 54.937 64.1618 54.5433 64.0953C54.1496 64.0288 53.7453 64.0129 53.349 64.0075C52.5528 63.9582 51.7541 64.0446 50.9869 64.2629Z" fill="#263238"/>
<path d="M48.7232 68.4098C49.5742 67.7879 50.382 67.1089 51.1411 66.3776C51.9114 65.6582 52.6313 64.8868 53.2957 64.0687C52.4433 64.689 51.6346 65.3671 50.8751 66.0983C50.1071 66.82 49.3882 67.5922 48.7232 68.4098Z" fill="#263238"/>
<path d="M64.9519 67.6384C64.6795 70.3522 64.6422 73.0844 64.8402 75.8046C64.9652 77.7039 66.2846 84.4363 68.37 84.0081C70.4554 83.5798 66.6437 79.4861 65.7286 75.9589C64.8029 72.3732 65.5477 69.7185 65.4892 67.5613L64.9519 67.6384Z" fill="#FFC727"/>
<g opacity="0.1">
<path d="M64.9519 67.6384C64.6795 70.3522 64.6422 73.0844 64.8402 75.8046C64.9652 77.7039 66.2846 84.4363 68.37 84.0081C70.4554 83.5798 66.6437 79.4861 65.7286 75.9589C64.8029 72.3732 65.5477 69.7185 65.4892 67.5613L64.9519 67.6384Z" fill="black"/>
</g>
<path d="M72.0647 67.9763C72.9973 70.2665 73.7307 72.6329 74.2566 75.0492C74.6369 76.733 75.2195 82.9281 73.2963 83.0904C71.3731 83.2526 73.6368 78.72 73.5251 75.411C73.416 72.054 72.086 69.926 71.5779 68.0454L72.0647 67.9763Z" fill="#FFC727"/>
<g opacity="0.1">
<path d="M72.0647 67.9763C72.9973 70.2665 73.7307 72.6329 74.2566 75.0492C74.6369 76.733 75.2195 82.9281 73.2963 83.0904C71.3731 83.2526 73.6368 78.72 73.5251 75.411C73.416 72.054 72.086 69.926 71.5779 68.0454L72.0647 67.9763Z" fill="black"/>
</g>
<path d="M64.0794 116.915C69.7399 116.045 79.0153 103.293 84.8939 88.7189C86.0138 85.9445 64.4731 74.7273 63.6139 77.8129C60.8794 87.7108 55.5249 100.657 55.6978 108.642C55.8387 114.851 60.1666 117.519 64.0794 116.915Z" fill="#D3766A"/>
<path d="M74.1555 67.3086C72.7829 65.6275 72.5728 60.9246 71.3412 58.1529C70.1096 55.3812 66.5 54.0804 65.8643 55.0992C65.2285 56.118 66.1702 57.1447 66.4654 61.6987C66.6543 64.6247 64.4119 70.4767 65.3695 75.7967C65.851 78.4646 75.544 68.9897 74.1555 67.3086Z" fill="#F7A9A0"/>
<path d="M74.1555 67.3086C72.7829 65.6275 72.5728 60.9246 71.3412 58.1529C70.1096 55.3812 66.5 54.0804 65.8643 55.0992C65.2285 56.118 66.1702 57.1447 66.4654 61.6987C66.6543 64.6247 64.4119 70.4767 65.3695 75.7967C65.851 78.4646 75.544 68.9897 74.1555 67.3086Z" fill="#D3766A"/>
<path opacity="0.06" d="M74.1555 67.3086C72.7829 65.6275 72.5728 60.9246 71.3412 58.1529C70.1096 55.3812 66.5 54.0804 65.8643 55.0992C65.2285 56.118 66.1702 57.1447 66.4654 61.6987C66.6543 64.6247 64.4119 70.4767 65.3695 75.7967C65.851 78.4646 75.544 68.9897 74.1555 67.3086Z" fill="black"/>
<path d="M84.854 53.0058C86.7772 54.7986 81.9519 59.1637 81.9519 59.1637C81.9519 59.1637 83.7049 58.6902 85.2291 59.5414C86.974 60.5123 86.2133 63.6777 86.2133 63.6777C86.2133 63.6777 88.0886 63.566 89.6074 64.6246C91.1848 65.7259 90.8709 69.0269 90.8709 69.0269C90.8709 69.0269 92.6744 69.8835 93.3288 71.7401C94.4513 74.9188 90.9348 78.7306 89.2324 81.521C87.4049 84.5081 85.112 88.2162 83.798 90.0569L63.1963 79.5765C63.1963 79.5765 66.7261 63.8213 69.5218 61.1241C71.8865 58.8524 81.928 50.2633 84.854 53.0058Z" fill="#D3766A"/>
<path d="M81.8695 59.1504C78.7839 60.9645 76.1398 63.5128 73.6235 65.9999C73.6118 66.0115 73.6053 66.0273 73.6053 66.0438C73.6053 66.0602 73.6118 66.076 73.6235 66.0876C73.6351 66.0993 73.6509 66.1058 73.6674 66.1058C73.6838 66.1058 73.6996 66.0993 73.7112 66.0876C76.193 63.5846 79.4036 61.6853 81.9785 59.286C81.9965 59.2716 82.008 59.2505 82.0105 59.2276C82.013 59.2047 82.0063 59.1817 81.9918 59.1637C81.9774 59.1457 81.9563 59.1342 81.9334 59.1317C81.9104 59.1292 81.8875 59.1359 81.8695 59.1504Z" fill="#263238"/>
<path d="M85.9632 63.5633C85.277 63.9942 84.737 64.6512 84.1943 65.2418C83.6091 65.8775 83.0346 66.5265 82.4733 67.1809C81.3455 68.4932 80.2505 69.8329 79.1882 71.2002C79.1403 71.2613 79.2228 71.3491 79.276 71.2879C80.4012 69.9819 81.5476 68.6918 82.734 67.4363C83.3245 66.8067 83.9204 66.1861 84.5215 65.5743C85.0775 64.997 85.7159 64.4358 86.1361 63.7442C86.148 63.7328 86.1575 63.7192 86.1642 63.7042C86.1708 63.6892 86.1744 63.673 86.1748 63.6566C86.1751 63.6401 86.1723 63.6238 86.1663 63.6085C86.1604 63.5932 86.1515 63.5792 86.1401 63.5673C86.1288 63.5554 86.1152 63.5459 86.1002 63.5393C86.0851 63.5326 86.0689 63.529 86.0525 63.5287C86.0361 63.5283 86.0198 63.5312 86.0044 63.5371C85.9891 63.543 85.9751 63.5519 85.9632 63.5633Z" fill="#263238"/>
<path d="M90.831 69.0801C90.2192 69.4313 89.767 70.1441 89.3175 70.6761C88.8174 71.2862 88.3129 71.8926 87.804 72.4956C86.7878 73.7006 85.7717 74.9055 84.713 76.0759C84.6598 76.1344 84.7476 76.2222 84.8008 76.1637C85.8808 74.98 86.9767 73.8123 88.046 72.6179C88.578 72.0327 89.1003 71.444 89.6128 70.8517C90.0543 70.349 90.6635 69.7717 90.8922 69.1307C90.8949 69.1225 90.8951 69.1138 90.8927 69.1055C90.8904 69.0973 90.8855 69.0899 90.8789 69.0845C90.8723 69.079 90.8642 69.0757 90.8557 69.0749C90.8471 69.0741 90.8385 69.0759 90.831 69.0801Z" fill="#263238"/>
<path d="M82.5638 52.4711C79.0659 53.9182 74.8737 56.9931 72.4159 58.903C71.4985 59.6141 70.6186 60.3724 69.7798 61.1747C68.9658 61.9913 68.4338 63.0366 67.9178 64.0607C67.564 64.755 67.2634 65.4759 66.9655 66.1887C67.4975 64.3267 68.1359 62.3477 69.4606 60.8687C70.2882 60.0241 71.1716 59.2358 72.1046 58.5093C74.5784 56.6074 77.1161 54.6789 79.9942 53.4367L82.5638 52.4711Z" fill="#263238"/>
<path d="M59.1824 83.5612L79.5713 101.471C79.5713 101.471 68.91 118.702 63.9384 118.365C58.9669 118.027 53.5644 114.808 53.9714 102.857C54.0698 99.8644 59.1824 83.5612 59.1824 83.5612Z" fill="#FFC727"/>
<path d="M55.4982 96.792L55.2322 96.9835C55.2695 96.8399 55.3094 96.6963 55.3466 96.55C56.2909 95.8504 57.2352 95.1481 58.1343 94.3927C60.4033 92.4935 62.6244 89.9718 63.0367 86.9447L63.2388 87.1229C63.0534 88.2461 62.6688 89.3271 62.103 90.3149C60.5496 93.0467 57.9667 94.9566 55.4982 96.792ZM67.2155 94.0283C66.6105 93.6126 65.896 93.385 65.162 93.3741C64.4279 93.3632 63.707 93.5695 63.0899 93.9671C61.8104 94.7864 60.9832 96.2361 60.6666 97.6911C60.2064 99.8058 60.5895 101.976 60.632 104.11C60.7041 108.157 59.6238 112.142 57.5172 115.598C57.589 115.673 57.6635 115.745 57.738 115.814C58.2763 114.935 58.7484 114.017 59.1504 113.069C59.9288 111.263 60.4577 109.359 60.7225 107.411C61.0018 105.357 60.8714 103.344 60.7624 101.293C60.6586 99.319 60.7225 97.2522 61.8743 95.5658C62.8877 94.0815 64.6593 93.1718 66.4175 93.9112C68.1758 94.6507 69.16 96.526 69.1972 98.388C69.3036 102.237 66.5372 105.469 64.6407 108.568C63.7363 110.041 62.925 111.6 62.5446 113.297C62.1881 114.907 62.244 116.58 62.7068 118.162C62.7127 118.185 62.7198 118.207 62.7281 118.229L63.0127 118.274C62.4664 116.503 62.4388 114.613 62.9329 112.826C63.9092 109.368 66.4548 106.653 68.08 103.516C68.9286 101.87 69.575 100.035 69.4579 98.1566C69.4324 97.3408 69.2164 96.5423 68.827 95.825C68.4376 95.1077 67.8857 94.4914 67.2155 94.0256V94.0283ZM73.1899 108.038C71.7535 108.179 70.4927 109.103 70.1841 110.552C69.966 111.59 70.2213 112.654 70.6656 113.63C70.7267 113.558 70.7932 113.486 70.8571 113.414C70.1735 111.792 70.0591 109.722 71.7934 108.722C72.2483 108.469 72.7521 108.316 73.2711 108.274C73.79 108.231 74.312 108.301 74.8019 108.477C74.8551 108.406 74.9056 108.334 74.9615 108.262C74.3952 108.055 73.7899 107.978 73.1899 108.036V108.038ZM79.3505 101.279C78.7132 101.438 78.0485 101.449 77.406 101.314C74.895 100.782 73.001 98.3135 73.2112 95.8823L72.9452 95.6402C72.5329 98.4199 74.8524 101.2 77.5869 101.625C78.2464 101.721 78.9188 101.673 79.5579 101.484L79.5712 101.46L79.3505 101.279Z" fill="white"/>
<path d="M58.9562 90.9693C59.9537 91.8018 60.8847 92.7222 61.8317 93.6106C62.7786 94.4991 63.7203 95.4008 64.6486 96.3132C66.5035 98.138 68.3434 99.976 70.1681 101.827C70.6655 102.335 71.1629 102.844 71.6524 103.362C72.1418 103.881 72.6286 104.535 73.1579 105.081C73.1642 105.09 73.167 105.101 73.166 105.112C73.1649 105.123 73.1601 105.133 73.1522 105.141C73.1443 105.149 73.1339 105.154 73.1228 105.155C73.1118 105.156 73.1007 105.153 73.0914 105.147C72.6286 104.708 72.1019 104.333 71.6284 103.902C71.155 103.471 70.6575 102.998 70.1787 102.538C69.2424 101.635 68.3097 100.729 67.3804 99.8191C65.5184 97.9996 63.6751 96.1669 61.8796 94.2889C60.8661 93.2249 59.8101 92.1822 58.8604 91.0624C58.8481 91.0497 58.8413 91.0326 58.8416 91.0149C58.8418 90.9972 58.8491 90.9803 58.8618 90.9679C58.8745 90.9556 58.8916 90.9488 58.9093 90.949C58.927 90.9493 58.9439 90.9566 58.9562 90.9693Z" fill="#263238"/>
<path d="M61.4912 85.5908L59.1345 83.6171L59.2489 83.5851C58.129 87.8092 56.8921 92.0014 55.7323 96.2122C55.1967 98.033 54.7528 99.8796 54.4023 101.745C54.0987 104.173 54.0915 106.63 54.3811 109.06C53.795 106.646 53.6063 104.153 53.8225 101.678C54.3997 97.5954 55.7084 93.6559 56.9267 89.7324C57.6209 87.6177 58.3551 85.519 59.1504 83.4388L59.2276 83.508L61.4886 85.5908H61.4912Z" fill="#263238"/>
<path d="M119.947 91.5518C116.457 96.2759 112.821 101.758 111.935 107.682C111.935 107.77 112.068 107.799 112.09 107.711C112.491 106.096 113.007 104.511 113.633 102.968C115.925 102.338 118.176 101.819 119.381 99.5424C120.61 97.2016 120.445 94.1532 120.219 91.6023C120.203 91.472 120.017 91.472 119.947 91.5518Z" fill="#FFC727"/>
<path d="M113.667 102.923C115.234 99.4067 117.245 95.8769 119.801 92.9855C119.805 92.9816 119.81 92.9793 119.815 92.979C119.82 92.9788 119.825 92.9806 119.829 92.9841C119.833 92.9877 119.835 92.9926 119.835 92.9978C119.836 93.0031 119.834 93.0082 119.83 93.0121C118.157 95.0736 116.883 97.316 115.641 99.5982C116.798 98.4252 118.061 97.3745 119.157 96.1402C119.179 96.1136 119.213 96.1402 119.192 96.1748C118.104 97.4782 116.918 98.8933 115.505 99.8589C115.126 100.558 114.742 101.259 114.353 101.963C114.449 101.91 114.548 101.862 114.643 101.814C114.662 101.814 114.675 101.833 114.659 101.841C114.55 101.896 114.444 101.952 114.332 102C114.149 102.333 113.968 102.665 113.779 102.998C113.736 103.062 113.633 102.998 113.667 102.923Z" fill="#263238"/>
<path d="M114.832 101.697C115.77 101.171 116.665 100.573 117.511 99.9095C117.532 99.8909 117.567 99.9095 117.543 99.9414C116.728 100.648 115.836 101.259 114.883 101.764C114.827 101.785 114.79 101.721 114.832 101.697Z" fill="#263238"/>
<path d="M111.531 106.802C111.531 106.873 111.661 106.871 111.659 106.802C111.677 104.852 111.659 102.891 111.691 100.931C112.191 99.9228 113.263 99.3642 114.01 98.5582C114.546 97.9669 115.013 97.3163 115.401 96.6191C116.3 94.9536 116.849 93.1227 117.016 91.2379C117.221 89.1524 116.428 82.2657 115.55 82.5051C115.093 82.6275 113.617 86.0403 113.226 87.1654C112.591 89.0258 112.126 90.94 111.837 92.8844C111.124 97.4676 111.188 102.181 111.531 106.802Z" fill="#FFC727"/>
<path d="M111.518 98.388C111.624 95.9195 112.18 93.4271 112.699 91.0331C113.26 88.4529 113.917 86.0243 115.245 83.7234C115.268 83.6808 115.332 83.7234 115.308 83.7633C114.424 85.5527 113.739 87.434 113.265 89.3732C113.356 89.2322 113.462 89.1072 113.555 88.9689C113.593 88.9184 113.678 88.9689 113.641 89.0194C113.522 89.2281 113.383 89.4242 113.226 89.6046C113.22 89.6065 113.215 89.6065 113.21 89.6046C112.752 91.448 112.425 93.3286 112.146 95.2146L112.209 95.1428C112.223 95.1268 112.247 95.1428 112.239 95.164C112.204 95.2279 112.164 95.2891 112.127 95.3529C111.983 96.3078 111.861 97.2601 111.723 98.2044C113.422 96.7521 114.872 95.039 115.691 92.927C115.691 92.927 115.713 92.927 115.707 92.927C114.909 95.1162 113.641 97.0606 111.693 98.3906C111.659 98.6566 111.624 98.8987 111.587 99.1514C111.587 99.2046 111.497 99.1913 111.497 99.1514C111.497 98.9253 111.497 98.6992 111.518 98.4757C111.51 98.4713 111.504 98.4649 111.499 98.4572C111.495 98.4495 111.492 98.4408 111.492 98.4319C111.492 98.4229 111.495 98.4142 111.499 98.4065C111.504 98.3988 111.51 98.3924 111.518 98.388Z" fill="#263238"/>
<path d="M112.319 94.8076C113.619 92.8685 114.832 90.9852 115.777 88.8439C115.777 88.8199 115.83 88.8439 115.819 88.8598C115.021 90.9878 113.896 93.1478 112.38 94.8581C112.353 94.8927 112.292 94.8475 112.319 94.8076Z" fill="#263238"/>
<path d="M114.045 88.3651C114.577 87.4128 115.151 86.4845 115.657 85.5136C115.673 85.487 115.71 85.5136 115.697 85.5375C115.283 86.5511 114.757 87.5156 114.13 88.413C114.093 88.4609 114.016 88.4183 114.045 88.3651Z" fill="#263238"/>
<path d="M113.848 88.7774V88.7969C113.848 88.7969 113.823 88.7774 113.848 88.7774Z" fill="#263238"/>
<path d="M110.212 101.16C110.186 102.453 110.033 103.74 109.757 105.003C109.776 105.142 109.797 105.269 109.815 105.424C110.215 104.028 110.447 102.589 110.504 101.138C110.516 101.118 110.523 101.095 110.523 101.072C110.523 101.049 110.516 101.026 110.504 101.005C110.562 99.0595 110.42 97.1127 110.079 95.196C109.475 91.613 108.156 88.1709 105.655 85.4843C105.635 85.4689 105.611 85.458 105.586 85.4525C105.561 85.4469 105.535 85.4468 105.51 85.452C105.484 85.4573 105.461 85.4679 105.44 85.4831C105.419 85.4983 105.402 85.5178 105.389 85.5402C104.381 88.1071 104.732 91.1687 105.591 93.7277C106.059 95.1132 106.728 96.4226 107.576 97.6139C108.422 98.8216 109.515 99.8403 110.212 101.16Z" fill="#FFC727"/>
<path d="M105.95 86.6839C108.321 90.5303 109.97 95.0895 110.169 99.6328C110.169 99.7126 110.039 99.7339 110.028 99.6514C109.972 99.2445 109.909 98.8401 109.845 98.4385C108.863 97.4995 107.858 96.51 107.155 95.3343C107.155 95.3156 107.174 95.289 107.19 95.3103C108.005 96.3074 108.877 97.256 109.802 98.1512C109.625 97.1475 109.422 96.1589 109.193 95.1853C109.129 95.1108 109.068 95.0363 109.004 94.9645C108.94 94.8927 109.033 94.8448 109.076 94.8954L109.132 94.9565C108.799 93.6212 108.385 92.3074 107.892 91.0224C107.291 90.3042 106.615 89.6924 106.177 88.8146C106.175 88.8104 106.175 88.8058 106.176 88.8014C106.177 88.7971 106.18 88.7935 106.184 88.7912C106.188 88.7889 106.193 88.7881 106.197 88.789C106.202 88.7899 106.206 88.7924 106.208 88.796C106.562 89.2934 106.903 89.7908 107.304 90.251C107.464 90.4345 107.64 90.6048 107.804 90.783C107.259 89.3886 106.612 88.0363 105.868 86.7371C105.866 86.7268 105.867 86.7162 105.872 86.7066C105.876 86.697 105.883 86.6888 105.892 86.6831C105.9 86.6774 105.911 86.6745 105.921 86.6746C105.932 86.6748 105.942 86.678 105.95 86.6839Z" fill="#263238"/>
<path d="M106.429 91.4294C107.195 92.4588 108.068 93.443 108.781 94.5097C108.802 94.5389 108.757 94.5708 108.73 94.5469C107.815 93.6877 107.041 92.5173 106.379 91.4586C106.357 91.4267 106.4 91.3975 106.429 91.4294Z" fill="#263238"/>
<path d="M108.887 94.7464L108.919 94.781C108.943 94.8023 108.919 94.8369 108.884 94.8156L108.853 94.7837C108.829 94.7598 108.866 94.7252 108.887 94.7464Z" fill="#263238"/>
<path d="M102.237 94.0788C102.429 96.0578 103.469 98.4199 104.737 99.9441C105.296 100.608 105.987 101.147 106.767 101.527C107.645 101.963 108.565 102.463 109.472 102.82C109.905 103.919 110.226 105.058 110.43 106.222L110.518 105.921C109.935 100.912 106.693 96.6297 102.538 93.882C102.506 93.8626 102.469 93.8528 102.431 93.8535C102.394 93.8542 102.357 93.8655 102.326 93.8861C102.294 93.9066 102.269 93.9356 102.254 93.9697C102.238 94.0038 102.232 94.0416 102.237 94.0788Z" fill="#FFC727"/>
<path d="M103.671 95.5578C103.642 95.5312 103.671 95.4806 103.713 95.5046C105.992 97.1982 107.809 99.4374 108.996 102.016C109.025 102.083 108.932 102.144 108.892 102.075C108.701 101.737 108.504 101.41 108.305 101.085C107.358 100.907 106.461 100.239 105.759 99.6063C105.74 99.5903 105.759 99.5637 105.786 99.5797C106.148 99.9095 106.551 100.192 106.985 100.42C107.371 100.617 107.783 100.739 108.187 100.896C107.833 100.341 107.467 99.8093 107.089 99.3004C106.067 98.9125 105.109 98.3746 104.245 97.7044C104.242 97.703 104.238 97.7008 104.236 97.6981C104.233 97.6953 104.231 97.692 104.23 97.6883C104.228 97.6847 104.228 97.6808 104.228 97.6769C104.229 97.6731 104.23 97.6694 104.232 97.666C104.234 97.6627 104.237 97.6598 104.24 97.6576C104.243 97.6554 104.247 97.654 104.25 97.6533C104.254 97.6527 104.258 97.6528 104.262 97.6538C104.266 97.6549 104.269 97.6567 104.272 97.6592C105.127 98.1772 106.01 98.6488 106.916 99.0716C106.339 98.3105 105.717 97.5839 105.054 96.8957C104.732 96.7255 104.405 96.5553 104.094 96.3637C104.089 96.3602 104.085 96.355 104.083 96.349C104.081 96.343 104.082 96.3366 104.084 96.3309C104.087 96.3251 104.091 96.3205 104.097 96.3178C104.103 96.315 104.109 96.3143 104.115 96.3159C104.374 96.4071 104.621 96.5286 104.852 96.6776C104.469 96.2972 104.083 95.9222 103.671 95.5578Z" fill="#263238"/>
<path d="M103.759 97.2867C103.815 97.3208 103.868 97.3591 103.918 97.4011C103.934 97.4011 103.918 97.4357 103.897 97.4277C103.842 97.3965 103.79 97.3619 103.74 97.3239C103.703 97.3239 103.74 97.2681 103.759 97.2867Z" fill="#263238"/>
<path d="M116.989 117.072H105.626L106.544 106.724L106.746 104.442H115.872L116.072 106.724L116.989 117.072Z" fill="#455A64"/>
<path d="M116.072 106.724H106.544L106.746 104.442H115.872L116.072 106.724Z" fill="#263238"/>
<path d="M116.415 102.846H106.203V105.104H116.415V102.846Z" fill="#455A64"/>
<path d="M94.6774 36.0588C94.7242 36.608 94.6072 37.1587 94.3412 37.6414C94.0751 38.1241 93.672 38.5171 93.1826 38.7707C92.6933 39.0243 92.1398 39.1272 91.592 39.0664C91.0442 39.0055 90.5268 38.7836 90.105 38.4288C89.6833 38.0739 89.3762 37.6021 89.2226 37.0727C89.069 36.5434 89.0757 35.9805 89.2419 35.455C89.4082 34.9295 89.7264 34.4651 90.1565 34.1204C90.5866 33.7757 91.1092 33.5663 91.6583 33.5185C92.0234 33.4868 92.3912 33.5273 92.7406 33.6379C93.09 33.7484 93.4142 33.9267 93.6946 34.1627C93.975 34.3986 94.2061 34.6875 94.3748 35.0129C94.5434 35.3383 94.6463 35.6937 94.6774 36.0588Z" fill="white"/>
<path d="M94.6774 36.0589C94.9168 38.538 91.9668 40.1074 90.0303 38.5194C89.7369 38.2753 89.4947 37.9756 89.3179 37.6374C89.1411 37.2991 89.0331 36.9292 89.0002 36.549C88.9673 36.1688 89.0101 35.7858 89.1262 35.4222C89.2423 35.0586 89.4294 34.7217 89.6766 34.4309C91.3098 32.5317 94.4885 33.5718 94.6774 36.0589ZM94.6774 36.0589C94.4619 33.6303 91.3763 32.6886 89.8521 34.5772C89.4084 35.1254 89.194 35.824 89.2541 36.5267C89.3141 37.2293 89.6437 37.8815 90.174 38.3465C91.9987 39.9425 94.8795 38.4848 94.6747 36.0589H94.6774Z" fill="#263238"/>
<path d="M87.2879 38.953C87.3141 39.2585 87.2492 39.565 87.1012 39.8336C86.9533 40.1023 86.729 40.321 86.4567 40.4622C86.1845 40.6034 85.8765 40.6607 85.5717 40.6268C85.2669 40.593 84.9789 40.4696 84.7443 40.2721C84.5096 40.0746 84.3388 39.812 84.2534 39.5175C84.168 39.2229 84.1718 38.9097 84.2644 38.6173C84.357 38.3249 84.5342 38.0666 84.7736 37.8749C85.013 37.6833 85.3039 37.5669 85.6094 37.5405C86.0192 37.5058 86.426 37.6351 86.7406 37.8998C87.0552 38.1646 87.252 38.5433 87.2879 38.953Z" fill="white"/>
<path d="M87.2879 38.9529C87.3099 39.2202 87.2651 39.4888 87.1577 39.7345C87.0503 39.9802 86.8835 40.1954 86.6724 40.3608C86.4613 40.5262 86.2124 40.6366 85.9481 40.682C85.6838 40.7275 85.4123 40.7067 85.1581 40.6214C84.9038 40.536 84.6748 40.3889 84.4914 40.1933C84.308 39.9976 84.1761 39.7594 84.1074 39.5002C84.0388 39.2409 84.0356 38.9687 84.0981 38.7079C84.1606 38.4471 84.2869 38.2059 84.4656 38.006C84.6774 37.7724 84.9524 37.6055 85.2573 37.5255C85.5622 37.4454 85.8838 37.4558 86.1829 37.5553C86.482 37.6549 86.7457 37.8392 86.9419 38.0859C87.1381 38.3327 87.2583 38.6311 87.2879 38.9449V38.9529ZM87.2879 38.9529C87.0538 36.9925 84.2183 37.2532 84.33 39.2189C84.5561 41.166 87.3943 40.9346 87.2879 38.9529Z" fill="#263238"/>
<path d="M119.03 24.1022C119.201 25.5187 118.998 26.9555 118.44 28.2686C117.881 29.5818 116.988 30.7252 115.849 31.5845C114.71 32.4438 113.365 32.9887 111.949 33.1648C110.533 33.3408 109.095 33.1418 107.781 32.5876C107.141 33.4226 106.318 34.0987 105.374 34.5633C104.431 35.0279 103.393 35.2684 102.342 35.2661C101.29 35.2638 100.253 35.0187 99.3117 34.5499C98.3704 34.0812 97.55 33.4014 96.9144 32.5636C96.6166 32.6547 96.3113 32.7188 96.002 32.7552C94.9388 32.8846 93.8608 32.7031 92.8985 32.2326C91.9363 31.7621 91.1311 31.0228 90.5803 30.1042C90.0295 29.1856 89.7568 28.127 89.7951 27.0565C89.8335 25.9861 90.1813 24.9498 90.7964 24.0729C89.5939 22.5465 88.977 20.6405 89.057 18.699C89.137 16.7575 89.9086 14.9086 91.2326 13.4863C92.5566 12.0641 94.3456 11.1622 96.2764 10.9436C98.2072 10.725 100.153 11.2041 101.761 12.2944C102.515 11.3523 103.504 10.6265 104.629 10.191C105.754 9.75545 106.975 9.62567 108.166 9.81485C109.358 10.004 110.478 10.5054 111.413 11.268C112.348 12.0306 113.064 13.0272 113.489 14.1564C113.773 14.0597 114.066 13.9928 114.364 13.9569C115.27 13.8461 116.188 14.0153 116.995 14.442C117.802 14.8686 118.459 15.5321 118.878 16.3433C119.297 17.1544 119.457 18.0743 119.337 18.9792C119.217 19.8841 118.823 20.7307 118.208 21.4049C118.64 22.2481 118.918 23.1614 119.03 24.1022Z" fill="white"/>
<path d="M119.03 24.1022C119.202 25.522 118.999 26.9622 118.441 28.279C117.882 29.5958 116.988 30.7432 115.848 31.6065C114.708 32.4698 113.361 33.0189 111.942 33.199C110.523 33.3791 109.082 33.1839 107.762 32.6328L107.818 32.6168C107.174 33.461 106.344 34.1452 105.393 34.6162C104.442 35.0871 103.394 35.3322 102.333 35.3322C101.271 35.3322 100.224 35.0871 99.2727 34.6162C98.3214 34.1452 97.4916 33.461 96.8479 32.6168L96.9384 32.6461C96.5231 32.7739 96.0931 32.8481 95.6589 32.8669C90.972 33.1568 88.0114 27.8528 90.706 24.0037V24.1474C86.6894 19.112 89.8734 11.5496 96.2681 10.8474C98.2204 10.6291 100.186 11.118 101.809 12.2253L101.7 12.2439C105.022 8.09695 111.669 9.16361 113.529 14.1405L113.478 14.1165C113.829 13.9962 114.196 13.9255 114.566 13.9064C115.463 13.8399 116.358 14.0439 117.137 14.4921C117.917 14.9403 118.543 15.612 118.936 16.4203C119.33 17.2287 119.471 18.1364 119.343 19.026C119.214 19.9156 118.822 20.7462 118.216 21.4102C118.65 22.2501 118.927 23.1625 119.032 24.1022H119.03ZM119.03 24.1022C118.915 23.1601 118.634 22.2459 118.2 21.4023C118.855 20.6706 119.25 19.7424 119.323 18.7625C119.396 17.7827 119.142 16.8064 118.601 15.9862C118.06 15.1659 117.263 14.5477 116.334 14.2283C115.405 13.9088 114.396 13.906 113.465 14.2203C111.638 9.31789 105.081 8.24857 101.822 12.3583L101.777 12.4168L101.713 12.3742C100.123 11.2937 98.1965 10.8216 96.2867 11.0442C90.0729 11.7624 87.0379 19.0907 90.8922 24.0011L90.9481 24.0729L90.8975 24.1447C88.2907 27.8395 91.1316 32.9546 95.6483 32.6966C96.089 32.6784 96.5254 32.6024 96.9464 32.4705C97.5702 33.3105 98.3804 33.9944 99.3132 34.4685C100.246 34.9425 101.276 35.1938 102.322 35.2026C103.369 35.2113 104.403 34.9774 105.343 34.519C106.284 34.0606 107.105 33.3904 107.743 32.561L107.767 32.5317L107.799 32.5477C109.109 33.1 110.542 33.2989 111.953 33.1247C113.364 32.9504 114.705 32.4091 115.841 31.5546C116.978 30.7002 117.871 29.5626 118.43 28.2553C118.989 26.9481 119.196 25.517 119.03 24.1048V24.1022Z" fill="#263238"/>
<path d="M105.137 23.6553L105.07 24.7805C105.067 24.8926 105.041 25.0029 104.993 25.1045C104.946 25.2062 104.879 25.2972 104.795 25.3719C104.711 25.4466 104.613 25.5035 104.507 25.539C104.401 25.5745 104.288 25.5879 104.176 25.5785C103.952 25.5654 103.742 25.464 103.593 25.2965C103.443 25.129 103.366 24.909 103.378 24.6847L103.479 22.8866C103.479 22.8679 103.498 22.8706 103.501 22.852C103.503 22.8334 103.474 22.844 103.474 22.8174C103.492 22.5952 103.595 22.3885 103.762 22.24C103.928 22.0915 104.145 22.0125 104.368 22.0194C104.627 22.042 104.888 22.0124 105.135 21.9322C105.383 21.852 105.611 21.723 105.808 21.5528C106.004 21.3825 106.165 21.1745 106.279 20.9411C106.394 20.7077 106.461 20.4537 106.475 20.1941C106.49 19.9344 106.452 19.6745 106.365 19.4297C106.277 19.1849 106.141 18.9603 105.965 18.769C105.788 18.5778 105.575 18.4239 105.339 18.3165C105.102 18.2091 104.846 18.1504 104.586 18.1438C104.25 18.1239 103.915 18.1929 103.614 18.3437C103.313 18.4945 103.058 18.7219 102.873 19.003C102.814 19.1021 102.736 19.1883 102.644 19.2564C102.551 19.3246 102.445 19.3732 102.333 19.3993C102.221 19.4255 102.105 19.4286 101.992 19.4086C101.878 19.3885 101.77 19.3457 101.674 19.2827C101.577 19.2197 101.495 19.1378 101.431 19.042C101.367 18.9462 101.324 18.8384 101.303 18.7252C101.282 18.6121 101.284 18.4958 101.309 18.3835C101.335 18.2713 101.382 18.1653 101.45 18.072C101.781 17.5677 102.233 17.1537 102.764 16.8672C103.295 16.5806 103.888 16.4305 104.492 16.4303C105.095 16.4301 105.689 16.5798 106.22 16.866C106.751 17.1522 107.203 17.5659 107.535 18.07C107.867 18.574 108.068 19.1525 108.121 19.7536C108.173 20.3547 108.076 20.9594 107.837 21.5135C107.598 22.0676 107.225 22.5536 106.752 22.9279C106.279 23.3022 105.72 23.5531 105.126 23.658L105.137 23.6553ZM104.924 27.4431L104.905 27.7544C104.902 27.8663 104.875 27.9764 104.828 28.0779C104.78 28.1795 104.713 28.2703 104.629 28.3449C104.546 28.4195 104.448 28.4764 104.342 28.512C104.235 28.5477 104.123 28.5614 104.011 28.5524C103.787 28.538 103.578 28.4358 103.428 28.268C103.279 28.1002 103.202 27.8803 103.213 27.6559L103.232 27.3447C103.248 27.1215 103.35 26.9132 103.517 26.7642C103.684 26.6152 103.902 26.5372 104.126 26.5467C104.237 26.5518 104.347 26.5791 104.448 26.6272C104.549 26.6753 104.639 26.7431 104.714 26.8266C104.788 26.9102 104.845 27.0078 104.881 27.1137C104.917 27.2195 104.932 27.3316 104.924 27.4431Z" fill="#FFC727"/>
</svg>
